PathFileType	4	(X/Y/Z)	C:/Users/opensim2020/Desktop/walking_exp_matlab/subject06_walking16_straight_01.trc																																																																																																																																																							
DataRate	CameraRate	NumFrames	NumMarkers	Units	OrigDataRate	OrigDataStartFrame	OrigNumFrames																																																																																																																																																			
100	100	7	51	mm	100	954	333																																																																																																																																																			
Frame#	Time	LFHD			RFHD			LBHD			RBHD			C7			T10			CLAV			STRN			RBAK			LSHO			LUPA			LELB			LFRM			LWRA			LWRB			LFIN			RSHO			RUPA			RELB			RFRM			RWRA			RWRB			RFIN			LASI			RASI			LPSI			RPSI			LTHI			LKNE			LTIB			LANK			LHEE			LTOE			RTHI			RKNE			RTIB			RANK			RHEE			RTOE			*39			*40			*41			*42			*43			*44			*45			*46			*47			*48			*49			*50		
		X1	Y1	Z1	X2	Y2	Z2	X3	Y3	Z3	X4	Y4	Z4	X5	Y5	Z5	X6	Y6	Z6	X7	Y7	Z7	X8	Y8	Z8	X9	Y9	Z9	X10	Y10	Z10	X11	Y11	Z11	X12	Y12	Z12	X13	Y13	Z13	X14	Y14	Z14	X15	Y15	Z15	X16	Y16	Z16	X17	Y17	Z17	X18	Y18	Z18	X19	Y19	Z19	X20	Y20	Z20	X21	Y21	Z21	X22	Y22	Z22	X23	Y23	Z23	X24	Y24	Z24	X25	Y25	Z25	X26	Y26	Z26	X27	Y27	Z27	X28	Y28	Z28	X29	Y29	Z29	X30	Y30	Z30	X31	Y31	Z31	X32	Y32	Z32	X33	Y33	Z33	X34	Y34	Z34	X35	Y35	Z35	X36	Y36	Z36	X37	Y37	Z37	X38	Y38	Z38	X39	Y39	Z39	X40	Y40	Z40	X41	Y41	Z41	X42	Y42	Z42	X43	Y43	Z43	X44	Y44	Z44	X45	Y45	Z45	X46	Y46	Z46	X47	Y47	Z47	X48	Y48	Z48	X49	Y49	Z49	X50	Y50	Z50	X51	Y51	Z51
																																																																																																																																																										
84	0.83	-535.57037	1663.14856	-1121.61609	-547.23285	1655.83313	-990.60638	-669.18384	1610.36389	-1133.62268	-679.21906	1608.3269	-1004.24579	-679.41052	1457.44934	-1069.8645	-734.68524	1131.72632	-1049.427	-573.82507	1374.67517	-1057.56592	-544.38263	1197.00073	-1051.42236	-765.55481	1297.13513	-984.26672	-611.1366	1401.54907	-1223.3645	-600.59009	1197.9884	-1292.81836	-592.98438	1085.58093	-1305.65381	-543.90881	942.72205	-1319.47046	-477.7551	838.45593	-1262.47437	-525.75745	824.66528	-1313.13013	-471.81827	752.8844	-1304.01282	-622.54504	1418.69556	-901.4975	-671.33099	1224.59924	-808.80524	-668.5058	1102.57495	-793.91644	-659.56024	983.06885	-772.85034	-606.18329	840.28363	-797.3194	-661.70728	845.12268	-759.41187	-627.91296	767.64758	-754.79169	-551.59497	962.87183	-1136.69617	-574.99799	973.70746	-916.93793	-711.68774	996.92615	-1122.24304	-722.44659	997.37323	-954.76447	-629.28772	651.64148	-1192.17908	-640.00769	488.33832	-1169.36035	-665.45959	232.75284	-1152.40979	-649.8075	62.37161	-1100.78528	-684.89594	48.54325	-1051.18811	-502.32663	34.0467	-1108.0719	-578.96191	641.55548	-855.62964	-540.66064	520.51691	-870.42572	-701.69403	322.53363	-883.71948	-827.08655	188.64369	-931.81183	-869.63293	191.98384	-981.02582	-736.45093	65.56802	-921.49762	-640.43011	1704.3313	-1073.72644	NaN	NaN	NaN	NaN	NaN	NaN	NaN	NaN	NaN	NaN	NaN	NaN	NaN	NaN	NaN	NaN	NaN	NaN	NaN	NaN	NaN	NaN	NaN	NaN	NaN	NaN	NaN	NaN	NaN	NaN	NaN	NaN	NaN
85	0.84	-529.89587	1663.33582	-1122.26465	-541.62823	1656.01306	-991.47156	-663.77008	1610.90015	-1134.5365	-673.94281	1608.97253	-1005.09167	-674.2879	1457.70544	-1070.86328	-729.65411	1132.11218	-1050.85974	-568.78485	1375.05737	-1058.44055	-539.36804	1197.38257	-1052.5144	-760.71991	1297.43909	-985.79431	-605.78113	1402.11011	-1224.36316	-593.13367	1198.94275	-1293.93738	-583.78339	1086.61072	-1306.84485	-532.18756	944.60571	-1320.28259	-464.70419	841.47443	-1262.64575	-512.00378	826.90112	-1313.6875	-456.83328	756.21033	-1304.20569	-617.99066	1418.9668	-902.54218	-667.29932	1224.91772	-810.05792	-664.45404	1102.82275	-795.25494	-655.62341	983.33545	-774.25989	-602.16339	840.57391	-798.65588	-657.84241	845.31372	-760.94604	-624.30493	767.79272	-756.36786	-546.76367	962.9328	-1138.07092	-569.82898	974.38068	-918.2146	-706.76532	997.21515	-1123.17004	-717.01129	997.97522	-955.80029	-625.30725	651.59991	-1192.47742	-636.91382	488.36389	-1169.46106	-663.88306	232.94637	-1152.43384	-649.46973	62.47004	-1100.672	-684.76868	48.77804	-1051.10583	-502.57169	33.78279	-1108.48584	-570.33594	643.20758	-856.75934	-530.72711	522.659	-872.15839	-687.43036	320.57196	-884.60101	-809.29608	183.09328	-932.09064	-852.53058	185.08604	-980.91541	-714.37115	63.36261	-923.05786	-634.83759	1704.77271	-1074.49768	NaN	NaN	NaN	NaN	NaN	NaN	NaN	NaN	NaN	NaN	NaN	NaN	NaN	NaN	NaN	NaN	NaN	NaN	NaN	NaN	NaN	NaN	NaN	NaN	NaN	NaN	NaN	NaN	NaN	NaN	NaN	NaN	NaN
86	0.85	-524.39374	1663.53186	-1122.90161	-536.34918	1656.1554	-992.06519	-658.3385	1611.44849	-1135.36292	-668.62482	1609.45789	-1006.00537	-669.25256	1457.99744	-1071.92407	-724.56085	1132.42017	-1052.21973	-563.77356	1375.40125	-1059.36292	-534.38458	1197.69531	-1053.59583	-755.65253	1297.6405	-987.35669	-600.54779	1402.70105	-1225.22949	-585.70862	1199.88025	-1295.06055	-574.97742	1087.56738	-1307.78418	-520.7774	946.51337	-1321.00183	-451.80878	844.67035	-1262.8479	-498.45557	829.23004	-1314.15222	-442.00873	759.44684	-1303.90918	-613.4538	1419.09192	-903.53223	-663.23163	1225.05347	-811.29126	-660.44666	1102.96619	-796.50543	-651.74518	983.44946	-775.59509	-598.30084	840.66772	-799.9751	-654.05261	845.35974	-762.41144	-620.49762	767.7619	-757.93231	-541.97809	962.89758	-1139.38818	-564.53241	975.32031	-919.68451	-701.83826	997.39502	-1124.02478	-712.08221	998.66174	-956.5025	-621.47131	651.5611	-1192.84131	-633.75	488.35434	-1169.66992	-662.88464	232.93021	-1151.99524	-649.21051	62.6042	-1100.52783	-684.85645	48.8588	-1051.11475	-502.32169	33.75055	-1108.50977	-561.95361	644.79755	-857.7171	-521.02209	524.68433	-873.68726	-673.18829	318.2948	-885.41919	-791.00323	176.93781	-932.39301	-834.75555	177.58463	-980.93585	-691.21832	61.18241	-924.27216	-629.3045	1705.18628	-1075.18494	NaN	NaN	NaN	NaN	NaN	NaN	NaN	NaN	NaN	NaN	NaN	NaN	NaN	NaN	NaN	NaN	NaN	NaN	NaN	NaN	NaN	NaN	NaN	NaN	NaN	NaN	NaN	NaN	NaN	NaN	NaN	NaN	NaN
87	0.86	-519.02698	1663.72009	-1123.46313	-531.11011	1656.16345	-992.70697	-652.77795	1611.96448	-1135.72327	-663.54468	1609.729	-1006.68604	-664.2868	1458.35437	-1072.97302	-719.55389	1132.68542	-1053.43713	-558.84467	1375.61841	-1060.21472	-529.33093	1197.98474	-1054.63367	-750.8847	1297.77698	-988.84216	-595.1886	1403.46606	-1226.06616	-578.51892	1200.63062	-1295.94922	-566.29309	1088.61475	-1308.86523	-509.62939	948.39166	-1321.60425	-438.93469	847.98798	-1263.0376	-485.18707	831.59766	-1314.49048	-427.61096	762.91302	-1304.10046	-608.91052	1419.14917	-904.49011	-659.12854	1225.05664	-812.52905	-656.4906	1102.99231	-797.80011	-647.8999	983.47144	-776.87653	-594.69202	840.40887	-801.47845	-650.47235	845.68524	-763.32062	-616.89655	767.74939	-759.24066	-537.20093	962.74603	-1140.64136	-559.31921	975.88141	-920.88934	-697.02118	997.53192	-1124.7854	-706.62128	999.07141	-957.37036	-617.71747	651.52686	-1193.19373	-630.94263	488.42001	-1169.7832	-661.20984	233.26158	-1152.42126	-649.23297	62.84016	-1100.69238	-684.75	49.05237	-1050.97839	-502.07541	33.73529	-1108.50391	-553.40741	646.2666	-858.3335	-511.7478	526.58942	-875.44037	-658.88733	315.71768	-886.20819	-772.21674	170.44247	-932.69971	-816.33618	169.4677	-980.89844	-668.09229	58.77163	-925.39282	-623.86011	1705.49524	-1075.85999	NaN	NaN	NaN	NaN	NaN	NaN	NaN	NaN	NaN	NaN	NaN	NaN	NaN	NaN	NaN	NaN	NaN	NaN	NaN	NaN	NaN	NaN	NaN	NaN	NaN	NaN	NaN	NaN	NaN	NaN	NaN	NaN	NaN
88	0.87	-513.69415	1663.89319	-1123.91089	-526.56018	1656.20361	-993.19354	-647.49445	1612.71155	-1136.41052	-658.29639	1610.01086	-1007.53064	-659.16034	1458.44824	-1073.97217	-714.41479	1132.85437	-1054.68896	-553.86456	1375.81323	-1061.10498	-524.37231	1198.12793	-1055.74377	-746.00745	1297.80676	-990.31165	-589.73486	1404.02527	-1226.77612	-571.30548	1201.40356	-1296.88599	-557.78033	1089.32935	-1309.85449	-499.00293	950.24817	-1322.4552	-426.2886	851.35535	-1263.22729	-472.10538	833.92596	-1314.60693	-413.33694	766.32385	-1303.96399	-604.35254	1419.09363	-905.40161	-655.03516	1224.98816	-813.75128	-652.47742	1102.89722	-799.03729	-644.08459	983.3631	-778.15649	-591.05316	840.52789	-802.42761	-646.62769	845.31934	-765.15063	-613.3006	767.61865	-760.35059	-532.33234	962.61328	-1141.79041	-554.04211	976.42395	-922.13019	-692.14117	997.56927	-1125.51392	-701.60992	999.55945	-957.94965	-614.04285	651.41357	-1193.56445	-628.17358	488.4657	-1169.99438	-660.01428	233.4436	-1152.41882	-649.05939	62.70612	-1100.1377	-684.60486	49.19849	-1050.87866	-502.03928	33.65291	-1108.57935	-545.09808	647.70807	-858.96289	-502.7821	528.28235	-876.93768	-644.46722	312.79605	-886.87347	-752.91388	163.69917	-932.97229	-797.2356	160.91331	-980.87054	-644.4726	56.40139	-925.82843	-618.53101	1705.71594	-1076.43494	NaN	NaN	NaN	NaN	NaN	NaN	NaN	NaN	NaN	NaN	NaN	NaN	NaN	NaN	NaN	NaN	NaN	NaN	NaN	NaN	NaN	NaN	NaN	NaN	NaN	NaN	NaN	NaN	NaN	NaN	NaN	NaN	NaN
89	0.88	-508.49884	1664.08533	-1124.33337	-521.54236	1656.13782	-993.57062	-642.1131	1612.83875	-1136.96069	-653.32928	1610.03552	-1008.164	-654.1684	1458.66309	-1074.96838	-709.30243	1132.93787	-1055.75928	-548.87378	1375.91821	-1061.92175	-519.35913	1198.2218	-1056.82495	-741.15375	1297.73535	-991.7677	-584.26941	1404.59485	-1227.61841	-564.30457	1202.01428	-1297.82019	-549.73596	1090.20593	-1310.82568	-488.17892	951.9964	-1322.71692	-413.8605	854.74274	-1263.32825	-459.43021	836.21332	-1314.60059	-399.13953	769.91107	-1303.80383	-599.78516	1418.95056	-906.30847	-650.83087	1224.75171	-815.02216	-648.43622	1102.73633	-800.28741	-640.28229	983.14709	-779.37836	-587.29242	840.31976	-803.33142	-643.09015	845.22485	-766.18787	-609.87384	767.39587	-761.3421	-527.53876	962.39008	-1142.91248	-548.74146	976.67389	-923.08368	-687.31683	997.51825	-1126.22253	-696.39917	999.85211	-958.58868	-610.52307	651.28278	-1193.87048	-625.37927	488.39432	-1170.31152	-656.10803	235.26773	-1153.6228	-648.88513	62.78273	-1100.00525	-684.68048	49.44043	-1050.80981	-501.88312	33.69015	-1108.573	-537.0827	649.04376	-859.45111	-494.00729	529.98499	-878.13715	-630.0412	309.78528	-887.54718	-733.117	156.67949	-933.20026	-777.62476	152.30807	-981.04285	-620.67163	54.09589	-925.95441	-613.23834	1705.9635	-1076.94666	NaN	NaN	NaN	NaN	NaN	NaN	NaN	NaN	NaN	NaN	NaN	NaN	NaN	NaN	NaN	NaN	NaN	NaN	NaN	NaN	NaN	NaN	NaN	NaN	NaN	NaN	NaN	NaN	NaN	NaN	NaN	NaN	NaN
90	0.89	-503.20361	1664.12134	-1124.59583	-516.53552	1656.0249	-993.88434	-636.89453	1613.06836	-1137.56567	-648.3045	1610.02979	-1008.82483	-649.02179	1458.60681	-1075.86951	-704.19189	1132.96899	-1056.83203	-543.88055	1375.94653	-1062.70154	-514.33484	1198.19373	-1057.92688	-736.25159	1297.59717	-993.15009	-579.06445	1404.53589	-1228.67664	-557.42462	1202.57166	-1298.72473	-541.53278	1090.86499	-1311.72046	-477.97	953.66583	-1323.35352	-401.69617	858.16565	-1263.38074	-446.95718	838.41541	-1314.39514	-385.45288	773.31824	-1303.37451	-595.19397	1418.73132	-907.16302	-646.74103	1224.50403	-816.12506	-644.36639	1102.47705	-801.50262	-636.40308	982.88092	-780.58618	-583.09064	840.13812	-803.96741	-639.57593	844.84253	-767.51758	-606.58295	767.24927	-762.26733	-522.69965	962.13385	-1143.98035	-543.5481	976.93787	-924.0614	-682.44513	997.3111	-1126.94312	-691.14905	1000.02057	-959.25873	-607.74933	651.46136	-1194.776	-623.03809	488.3371	-1170.31189	-657.73322	233.67662	-1152.474	-648.89594	62.84436	-1099.88306	-687.53687	46.38861	-1053.89124	-501.82715	33.61753	-1108.64319	-529.38721	650.15247	-860.14508	-485.72885	531.43744	-879.28949	-615.48346	306.63577	-888.0907	-712.84918	149.61708	-933.35663	-757.06799	142.99791	-981.349	-596.04852	51.91047	-926.10388	-608.13013	1705.91174	-1077.31763	NaN	NaN	NaN	NaN	NaN	NaN	NaN	NaN	NaN	NaN	NaN	NaN	NaN	NaN	NaN	NaN	NaN	NaN	NaN	NaN	NaN	NaN	NaN	NaN	NaN	NaN	NaN	NaN	NaN	NaN	NaN	NaN	NaN
